<svg xmlns="http://www.w3.org/2000/svg" preserveAspectRatio="xMinYMin meet" viewBox="0 0 614.4 614.4">
  <defs/>
  <defs>
    <filter id="a" color-interpolation-filters="sRGB">
      <feGaussianBlur result="fbSourceGraphic" stdDeviation="7 7"/>
      <feColorMatrix in="fbSourceGraphic" result="fbSourceGraphicAlpha" values="0 0 0 -1 0 0 0 0 -1 0 0 0 0 -1 0 0 0 0 1 0"/>
      <feGaussianBlur in="fbSourceGraphic" result="fbSourceGraphic" stdDeviation="7 7"/>
      <feColorMatrix in="fbSourceGraphic" result="fbSourceGraphicAlpha" values="0 0 0 -1 0 0 0 0 -1 0 0 0 0 -1 0 0 0 0 1 0"/>
      <feGaussianBlur in="fbSourceGraphic" result="fbSourceGraphic" stdDeviation="7 7"/>
      <feColorMatrix in="fbSourceGraphic" result="fbSourceGraphicAlpha" values="0 0 0 -1 0 0 0 0 -1 0 0 0 0 -1 0 0 0 0 1 0"/>
      <feGaussianBlur in="fbSourceGraphic" result="fbSourceGraphic" stdDeviation="7 7"/>
      <feColorMatrix in="fbSourceGraphic" result="fbSourceGraphicAlpha" values="0 0 0 -1 0 0 0 0 -1 0 0 0 0 -1 0 0 0 0 1 0"/>
      <feGaussianBlur in="fbSourceGraphic" result="blur" stdDeviation="7 7"/>
    </filter>
  </defs>
  <g fill="#22b1ff" filter="url(#a)" transform="translate(51.2 51.2)">
    <path d="M119.5 267.2H98a24.8 24.8 0 01-24.9-24.7 7.5 7.5 0 10-15 0c0 21.9 18 39.7 40 39.7h21.4a7.5 7.5 0 100-15zM190 322.7h-64A38.3 38.3 0 0087.5 361a7.5 7.5 0 1015 0 23.3 23.3 0 0123.3-23.2H190a7.5 7.5 0 100-15zM251.1 322.7h-31a7.5 7.5 0 100 15h31a7.5 7.5 0 100-15zM198.4 177a7.5 7.5 0 00-7.5 7.5 39 39 0 01-39.1 38.9 7.5 7.5 0 100 15 54 54 0 0054-54c0-4-3.3-7.4-7.4-7.4zM184.6 63.6A32.6 32.6 0 00150 93.9a7.5 7.5 0 0015 1c.5-9.6 9-17 18.6-16.3a7.5 7.5 0 101-15zM159.3 356.1a7.5 7.5 0 100 15c12.4 0 22.5 10 22.5 22.3s-10 22.3-22.5 22.3a7.5 7.5 0 100 15 37.4 37.4 0 0037.5-37.3 37.4 37.4 0 00-37.5-37.3zM236.1 179.5a7.5 7.5 0 100 15 18 18 0 110 35.8 7.5 7.5 0 100 15 33 33 0 0033-32.9 33 33 0 00-33-33zM104 131.8a7.5 7.5 0 100 15 31 31 0 0131 30.8 31 31 0 01-31 30.8 7.5 7.5 0 100 15 46 46 0 0046-45.8 46 46 0 00-46-45.8zM456.6 131.5a25.6 25.6 0 00-25.6 25.4 25.6 25.6 0 0051.1 0c0-14-11.4-25.4-25.5-25.4zm0 36a10.5 10.5 0 110-21c5.8 0 10.5 4.7 10.5 10.4 0 5.8-4.7 10.5-10.5 10.5zM481.6 323.4a25.6 25.6 0 00-25.5 25.5 25.6 25.6 0 0051 0c0-14-11.4-25.5-25.5-25.5zm0 36c-5.8 0-10.5-4.7-10.5-10.5s4.7-10.5 10.5-10.5 10.6 4.7 10.6 10.5-4.8 10.5-10.6 10.5zM465.9 233.5c-4.3 0-8.4 1.1-12 3L439.3 222a7.5 7.5 0 00-10.6 10.6l14.6 14.5a25.6 25.6 0 1048.2 11.9c0-14-11.5-25.5-25.6-25.5zm0 36c-5.8 0-10.6-4.7-10.6-10.5s4.8-10.5 10.6-10.5 10.6 4.7 10.6 10.5-4.8 10.5-10.6 10.5zM449 401.7a25.6 25.6 0 00-25.6 25.5 25.6 25.6 0 0051.2 0c0-14-11.5-25.5-25.6-25.5zm0 36c-5.8 0-10.6-4.7-10.6-10.5s4.8-10.5 10.6-10.5 10.6 4.7 10.6 10.5-4.8 10.5-10.6 10.5z"/>
    <path d="M361.2 141c4.8 0 10.5-2.4 13.9-5.8l29-28.8a25.5 25.5 0 10-11.8-9.4l-27.8 27.6a7 7 0 01-3.3 1.3h-61.9V76.3h17.4a25.6 25.6 0 0050-7.5 25.6 25.6 0 00-50-7.5h-17.4v-1.1a60.4 60.4 0 00-115.3-25 63.5 63.5 0 00-68.2 61.7 63.6 63.6 0 00-68.8 85 85.7 85.7 0 00-28.6 120.6 86.9 86.9 0 0028.9 27.8A63.4 63.4 0 0058.9 395a7.5 7.5 0 1011.2-10 48.2 48.2 0 0113.4-74.5 7.5 7.5 0 10-7.2-13.2 63.6 63.6 0 00-22 19.7 70.8 70.8 0 01-34.5-61A71 71 0 0159 192.4s14-7.8 32.6-7.8a7.5 7.5 0 100-15c-11 0-21.3 2-31 5.7a48.6 48.6 0 0161-61.8 7.5 7.5 0 009.7-8.2 48.6 48.6 0 1197-7 7.5 7.5 0 1015 0c0-28-18.5-51.9-44-60.2a45.4 45.4 0 0185 22v.9H270a7.5 7.5 0 100 15h14.4v50h-60.6c-13.8 0-25-11.1-25-24.8a7.5 7.5 0 10-15 0c0 22 18 39.7 40 39.7h60.6v126.3H162.7a7.5 7.5 0 100 15h121.6v103h-23.2a38.3 38.3 0 00-38.3 38.2 7.5 7.5 0 1015 0 23.3 23.3 0 0123.3-23.2h23.2v51.6l-.1 3.5h-14.3a7.5 7.5 0 100 15h10.4a45.5 45.5 0 01-80.9 3.8c9-3 17.4-8 24.4-14.7a7.5 7.5 0 10-10.4-10.8 48.5 48.5 0 01-34 13.7 48.6 48.6 0 01-48.6-48.4v-2.1c6.1-2.5 11.8-5.9 16.9-10.1a7.5 7.5 0 001-10.6 7.6 7.6 0 00-10.6-1 50 50 0 01-35.5 11.2 7.5 7.5 0 10-1.2 15c4.8.4 9.7.2 14.4-.4a63.7 63.7 0 0068.3 61.2 60.5 60.5 0 00115.2-25.3v-16.5h39.8a7 7 0 013.2 1.3l18 17.8a25.6 25.6 0 1047.3 13.4 25.6 25.6 0 00-36-23.3L352.9 426c-3.4-3.4-9-5.7-13.8-5.7h-39.8v-40.1h65.2a25.6 25.6 0 0050-7.5 25.6 25.6 0 00-50-7.5h-65.2v-50.3h78a25.6 25.6 0 0050-7.5 25.6 25.6 0 00-50-7.5h-78v-54.6H318a25.6 25.6 0 0050-7.5 25.6 25.6 0 00-50-7.5h-18.6v-43.2H381a7 7 0 013.3 1.3l15.4 15.3a7.5 7.5 0 0010.6 0c3-3 3-7.7 0-10.6l-15.4-15.3c-3.4-3.4-9-5.7-13.9-5.7h-81.7v-31.2zm52.2-68.8c5.9 0 10.6 4.7 10.6 10.5s-4.7 10.5-10.6 10.5c-5.8 0-10.5-4.7-10.5-10.5s4.7-10.5 10.5-10.5zm-72.2-13.9c5.8 0 10.5 4.7 10.5 10.5s-4.7 10.5-10.5 10.5c-5.9 0-10.6-4.7-10.6-10.5s4.7-10.5 10.6-10.5zm40.8 399c5.8 0 10.5 4.7 10.5 10.5s-4.7 10.5-10.5 10.5c-5.9 0-10.6-4.7-10.6-10.5s4.7-10.5 10.6-10.5zm7-95.1c5.8 0 10.5 4.7 10.5 10.5a10.5 10.5 0 01-21.1 0c0-5.8 4.7-10.5 10.6-10.5zm12.8-65.2c5.8 0 10.5 4.7 10.5 10.4a10.5 10.5 0 01-21.1 0c0-5.7 4.8-10.4 10.6-10.4zm-59.5-69.6c5.9 0 10.6 4.7 10.6 10.4 0 5.8-4.7 10.5-10.6 10.5-5.8 0-10.5-4.7-10.5-10.5 0-5.7 4.7-10.4 10.5-10.4z"/>
  </g>
  <g fill="#d4ffff">
    <path d="M170.7 318.4h-21.5a24.8 24.8 0 01-24.9-24.7 7.5 7.5 0 10-15 0c0 21.9 18 39.7 40 39.7h21.4a7.5 7.5 0 100-15zM241.2 374h-64a38.3 38.3 0 00-38.4 38.1 7.5 7.5 0 1015 0A23.3 23.3 0 01177 389h64.1a7.5 7.5 0 100-15zM302.3 374h-31a7.5 7.5 0 100 15h31a7.5 7.5 0 100-15zM249.6 228.2a7.5 7.5 0 00-7.5 7.5 39 39 0 01-39.1 38.9 7.5 7.5 0 100 15 54 54 0 0054-54c0-4-3.3-7.4-7.4-7.4zM235.8 114.8a32.6 32.6 0 00-34.6 30.3 7.5 7.5 0 0015 1c.5-9.6 9-17 18.6-16.3a7.5 7.5 0 101-15zM210.5 407.3a7.5 7.5 0 100 15c12.4 0 22.5 10 22.5 22.3S223 467 210.5 467a7.5 7.5 0 100 15 37.4 37.4 0 0037.5-37.3 37.4 37.4 0 00-37.5-37.3zM287.3 230.7a7.5 7.5 0 100 15 18 18 0 110 35.8 7.5 7.5 0 100 15 33 33 0 0033-32.9 33 33 0 00-33-33zM155.2 183a7.5 7.5 0 100 15 31 31 0 0131 30.8 31 31 0 01-31 30.8 7.5 7.5 0 100 15 46 46 0 0046-45.8 46 46 0 00-46-45.8zM507.8 182.7a25.6 25.6 0 00-25.6 25.4 25.6 25.6 0 0051.1 0c0-14-11.4-25.4-25.5-25.4zm0 36a10.5 10.5 0 110-21c5.8 0 10.5 4.7 10.5 10.4 0 5.8-4.7 10.5-10.5 10.5zM532.8 374.6a25.6 25.6 0 00-25.5 25.5 25.6 25.6 0 0051 0c0-14-11.4-25.5-25.5-25.5zm0 36c-5.8 0-10.5-4.7-10.5-10.5s4.7-10.5 10.5-10.5 10.6 4.7 10.6 10.5-4.8 10.5-10.6 10.5zM517 284.7c-4.2 0-8.3 1.1-11.9 3l-14.6-14.5a7.5 7.5 0 00-10.6 10.6l14.6 14.5a25.6 25.6 0 1048.2 11.9c0-14-11.5-25.5-25.6-25.5zm0 36c-5.7 0-10.5-4.7-10.5-10.5s4.8-10.5 10.6-10.5 10.6 4.7 10.6 10.5-4.8 10.5-10.6 10.5zM500.2 453a25.6 25.6 0 00-25.6 25.4 25.6 25.6 0 0051.2 0c0-14-11.5-25.5-25.6-25.5zm0 35.9c-5.8 0-10.6-4.7-10.6-10.5s4.8-10.5 10.6-10.5 10.6 4.7 10.6 10.5-4.8 10.5-10.6 10.5z"/>
    <path d="M412.4 192.1c4.8 0 10.5-2.3 13.9-5.7l29-28.8a25.5 25.5 0 10-11.8-9.4l-27.8 27.6a7 7 0 01-3.3 1.3h-61.9v-49.6H368a25.6 25.6 0 0050-7.5 25.6 25.6 0 00-50-7.5h-17.4v-1.1a60.4 60.4 0 00-115.3-25A63.5 63.5 0 00167 148a63.6 63.6 0 00-68.8 85 85.7 85.7 0 00-28.6 120.6 86.9 86.9 0 0028.9 27.8 63.4 63.4 0 0011.6 64.7 7.5 7.5 0 1011.2-10 48.2 48.2 0 0113.4-74.5 7.5 7.5 0 10-7.2-13.2 63.6 63.6 0 00-22 19.7 70.8 70.8 0 01-34.5-61 71 71 0 0139.2-63.6s14-7.8 32.6-7.8a7.5 7.5 0 100-15c-11 0-21.3 2-31 5.7a48.6 48.6 0 0161-61.8 7.5 7.5 0 009.7-8.2 48.6 48.6 0 1197-7 7.5 7.5 0 1015 0c0-28-18.5-51.9-44-60.2a45.4 45.4 0 0185 22v.9h-14.4a7.5 7.5 0 100 15h14.4v50H275c-13.8 0-25-11.1-25-24.8a7.5 7.5 0 10-15 0c0 22 18 39.7 40 39.7h60.6v126.3H214a7.5 7.5 0 100 15h121.6v103h-23.2a38.3 38.3 0 00-38.3 38.2 7.5 7.5 0 1015 0 23.3 23.3 0 0123.3-23.2h23.2V503l-.1 3.5H321a7.5 7.5 0 100 15h10.4a45.5 45.5 0 01-80.9 3.8c9-3 17.4-8 24.4-14.7a7.5 7.5 0 10-10.4-10.8 48.5 48.5 0 01-34 13.7A48.6 48.6 0 01182 465V463c6.1-2.5 11.8-5.9 16.9-10.1a7.5 7.5 0 001-10.6 7.6 7.6 0 00-10.6-1 50 50 0 01-35.5 11.2 7.5 7.5 0 10-1.2 15c4.8.4 9.7.2 14.4-.4a63.7 63.7 0 0068.3 61.2A60.5 60.5 0 00350.5 503v-16.5h39.8a7 7 0 013.2 1.3l18 17.8a25.6 25.6 0 1047.3 13.4 25.6 25.6 0 00-36-23.3L404 477.2c-3.4-3.4-9-5.7-13.8-5.7h-39.8v-40.1h65.2a25.6 25.6 0 0050-7.5 25.6 25.6 0 00-50-7.5h-65.2V366h78a25.6 25.6 0 0050-7.5 25.6 25.6 0 00-50-7.5h-78v-54.6h18.6a25.6 25.6 0 0050-7.5 25.6 25.6 0 00-50-7.5h-18.6v-43.2h81.7a7 7 0 013.3 1.3l15.4 15.3a7.5 7.5 0 0010.6 0c3-3 3-7.7 0-10.6L446 229c-3.4-3.4-9-5.7-13.9-5.7h-81.7V192zm52.2-68.7c5.9 0 10.6 4.7 10.6 10.5s-4.7 10.5-10.6 10.5c-5.8 0-10.5-4.7-10.5-10.5s4.7-10.5 10.5-10.5zm-72.2-13.9c5.8 0 10.5 4.7 10.5 10.5s-4.7 10.5-10.5 10.5c-5.9 0-10.6-4.7-10.6-10.5s4.7-10.5 10.6-10.5zm40.8 399c5.8 0 10.5 4.7 10.5 10.5s-4.7 10.5-10.5 10.5c-5.9 0-10.6-4.7-10.6-10.5s4.7-10.5 10.6-10.5zm7-95.1c5.8 0 10.5 4.7 10.5 10.5a10.5 10.5 0 01-21.1 0c0-5.8 4.7-10.5 10.6-10.5zm12.8-65.2c5.8 0 10.5 4.7 10.5 10.4a10.5 10.5 0 01-21.1 0c0-5.7 4.8-10.4 10.6-10.4zm-59.5-69.6c5.9 0 10.6 4.7 10.6 10.4 0 5.8-4.7 10.5-10.6 10.5-5.8 0-10.5-4.7-10.5-10.5 0-5.7 4.7-10.4 10.5-10.4z"/>
  </g>
</svg>
