<?xml version="1.0" standalone="no"?>
<!DOCTYPE svg PUBLIC "-//W3C//DTD SVG 20010904//EN"
 "http://www.w3.org/TR/2001/REC-SVG-20010904/DTD/svg10.dtd">
<svg version="1.0" xmlns="http://www.w3.org/2000/svg"
 width="2311.000000pt" height="2311.000000pt" viewBox="0 0 2311.000000 2311.000000"
 preserveAspectRatio="xMidYMid meet">
<metadata>
Created by potrace 1.11, written by Peter Selinger 2001-2013
</metadata>
<g transform="translate(0.000000,2311.000000) scale(0.100000,-0.100000)"
fill="#000000" stroke="none">
<path d="M0 11555 l0 -11555 11555 0 11555 0 0 11555 0 11555 -11555 0 -11555
0 0 -11555z m14585 7160 c139 -7 284 -16 345 -20 30 -3 89 -7 130 -10 41 -3
118 -10 170 -16 52 -5 118 -12 145 -15 59 -6 228 -27 305 -39 14 -2 77 -12
140 -23 63 -12 129 -23 145 -25 168 -25 551 -115 745 -174 63 -19 122 -36 131
-38 19 -4 166 -54 194 -65 11 -5 40 -16 65 -24 155 -51 501 -207 690 -312 36
-20 90 -50 120 -66 30 -17 63 -37 73 -46 9 -8 17 -12 17 -9 0 3 12 -5 26 -18
15 -14 30 -23 34 -20 4 2 16 -5 28 -15 12 -11 26 -20 31 -20 6 0 15 -8 20 -17
6 -10 11 -14 11 -10 0 4 12 -4 27 -18 15 -14 33 -25 40 -25 6 0 13 -3 15 -7 4
-11 85 -73 94 -73 4 0 17 -10 29 -22 12 -13 36 -34 55 -48 18 -14 43 -35 56
-47 13 -13 28 -23 34 -23 6 0 8 -4 5 -10 -3 -5 -2 -10 4 -10 10 0 341 -325
341 -335 0 -4 29 -39 73 -86 9 -10 17 -23 17 -27 0 -5 10 -18 23 -30 42 -41
57 -59 57 -70 0 -7 5 -12 10 -12 6 0 10 -7 10 -15 0 -9 11 -27 25 -41 14 -14
25 -29 25 -34 0 -6 5 -10 10 -10 6 0 10 -6 10 -13 0 -7 8 -22 18 -33 9 -11 24
-32 32 -46 113 -200 269 -448 281 -448 6 0 8 -4 4 -9 -3 -6 3 -14 12 -20 10
-6 14 -11 10 -11 -4 0 -3 -6 3 -12 59 -70 162 -292 185 -396 3 -12 7 -32 10
-44 2 -13 8 -36 11 -53 4 -16 8 -39 9 -50 2 -11 6 -31 9 -45 12 -43 9 -292 -3
-360 -7 -36 -21 -96 -33 -135 -34 -118 -163 -346 -243 -430 -19 -21 -35 -41
-35 -45 0 -3 -11 -16 -25 -28 -14 -12 -25 -27 -25 -33 0 -5 -4 -7 -10 -4 -5 3
-10 1 -10 -5 0 -6 -25 -34 -55 -64 -30 -29 -55 -52 -55 -50 0 1 -22 -18 -48
-44 -27 -26 -66 -60 -87 -77 -21 -16 -55 -47 -76 -67 -20 -21 -42 -38 -49 -38
-6 0 -13 -7 -16 -15 -4 -8 -12 -15 -20 -15 -8 0 -19 -9 -26 -20 -7 -11 -19
-20 -26 -20 -7 0 -15 -7 -18 -15 -4 -8 -9 -13 -13 -10 -4 2 -23 -8 -42 -24
-19 -15 -88 -63 -154 -107 -66 -43 -122 -81 -125 -84 -3 -3 -16 -11 -30 -19
-14 -8 -86 -51 -160 -96 -74 -45 -155 -92 -180 -105 -25 -14 -53 -31 -62 -39
-10 -8 -18 -11 -18 -6 0 4 -7 2 -16 -6 -35 -29 -599 -314 -759 -384 -49 -21
-94 -42 -99 -47 -6 -4 -16 -8 -23 -8 -7 0 -59 -22 -115 -50 -56 -27 -105 -50
-110 -50 -10 0 -235 -95 -338 -142 -36 -16 -72 -31 -81 -33 -31 -6 -144 -68
-172 -94 -38 -35 -57 -83 -57 -143 0 -90 -3 -86 309 -378 151 -141 493 -480
581 -575 150 -162 344 -404 445 -555 28 -41 58 -84 68 -95 10 -11 20 -30 23
-42 4 -13 11 -23 17 -23 6 0 8 -3 4 -6 -3 -3 2 -14 11 -24 10 -10 23 -39 31
-64 7 -25 16 -44 20 -42 4 3 8 -5 8 -16 1 -11 8 -28 16 -37 18 -20 65 -168 76
-241 12 -75 12 -540 0 -619 -11 -70 -65 -221 -80 -221 -5 0 -9 -6 -9 -14 0
-13 -32 -76 -52 -101 -46 -58 -68 -89 -68 -95 0 -7 -259 -268 -292 -295 -45
-37 -125 -103 -143 -120 -12 -11 -60 -48 -108 -83 -48 -35 -87 -67 -87 -73 0
-5 -5 -9 -10 -9 -15 0 -160 -101 -160 -111 0 -5 -4 -8 -8 -7 -4 2 -70 -38
-147 -88 -77 -49 -167 -105 -200 -124 -33 -19 -89 -52 -125 -75 -88 -56 -304
-178 -520 -293 -190 -101 -980 -492 -995 -492 -3 0 -49 -21 -240 -110 -22 -10
-62 -29 -90 -40 -27 -12 -63 -28 -80 -35 -16 -8 -77 -35 -135 -60 -58 -25
-118 -52 -135 -60 -45 -20 -109 -48 -220 -94 -55 -23 -113 -48 -130 -55 -32
-15 -118 -51 -200 -84 -27 -11 -81 -34 -120 -51 -38 -16 -122 -51 -185 -76
-63 -26 -164 -67 -225 -92 -60 -25 -184 -73 -275 -108 -91 -35 -192 -75 -225
-88 -33 -13 -98 -38 -145 -56 -47 -18 -132 -51 -190 -73 -58 -23 -145 -56
-195 -75 -49 -19 -108 -41 -130 -50 -22 -8 -57 -21 -77 -29 -21 -8 -56 -21
-78 -29 -22 -8 -58 -22 -80 -30 -22 -8 -57 -21 -77 -29 -21 -8 -96 -35 -168
-61 -71 -25 -139 -50 -150 -55 -11 -4 -36 -13 -55 -20 -19 -7 -44 -16 -55 -20
-11 -4 -36 -13 -55 -20 -19 -7 -44 -16 -55 -20 -11 -4 -36 -13 -55 -20 -19 -7
-44 -16 -55 -20 -11 -5 -42 -16 -70 -25 -27 -10 -59 -21 -70 -25 -11 -5 -42
-16 -70 -25 -27 -10 -59 -21 -70 -25 -11 -5 -42 -16 -70 -25 -27 -10 -59 -21
-70 -25 -11 -5 -40 -15 -65 -24 -87 -29 -255 -88 -275 -96 -11 -4 -56 -20
-100 -35 -44 -15 -89 -31 -100 -35 -11 -5 -76 -28 -145 -51 -69 -23 -208 -71
-310 -106 -251 -87 -1649 -554 -1669 -558 -9 -2 -97 -30 -196 -63 -234 -77
-477 -156 -490 -158 -5 -1 -57 -18 -115 -37 -339 -112 -627 -195 -765 -222
-11 -2 -58 -13 -105 -25 -47 -11 -94 -22 -105 -25 -11 -2 -58 -13 -105 -25
-47 -11 -94 -22 -105 -25 -17 -3 -175 -41 -210 -49 -5 -2 -21 -6 -35 -9 -14
-4 -61 -15 -105 -26 -44 -11 -113 -28 -152 -39 -109 -28 -177 -18 -201 32 -6
11 -21 54 -32 94 -29 102 -63 133 -184 171 -116 36 -154 56 -168 86 -6 14 -14
25 -18 25 -13 0 -21 67 -14 105 6 35 65 105 87 105 7 0 32 10 57 22 25 11 51
22 58 24 7 1 55 19 105 39 51 20 99 38 108 40 30 6 163 72 185 91 30 27 64 94
64 127 0 45 -24 90 -66 122 -36 27 -44 29 -128 29 -50 0 -107 -4 -126 -8 -46
-11 -129 -17 -157 -11 -24 6 -54 54 -59 93 -4 40 -43 107 -72 124 -49 29 -100
31 -192 9 -47 -12 -94 -26 -105 -31 -60 -28 -121 -35 -325 -36 -118 -1 -230
-2 -249 -3 -48 0 -54 2 -72 25 -11 13 -18 42 -20 80 -1 32 -7 74 -13 92 -10
34 -82 106 -97 97 -4 -3 -9 -1 -11 5 -1 5 -30 12 -63 14 -60 4 -104 12 -112
19 -2 2 2 20 9 40 19 54 193 179 370 267 77 38 144 67 149 64 5 -3 9 0 9 6 0
6 6 10 13 8 7 -2 44 7 82 19 39 12 95 27 125 33 199 44 240 123 190 368 -42
205 -50 238 -61 287 -26 112 -19 270 14 330 6 11 12 22 12 25 2 9 190 382 232
460 22 41 59 109 81 150 21 41 63 115 91 164 28 49 51 90 51 92 0 1 32 58 72
126 39 67 81 141 93 163 23 42 45 79 140 235 32 52 74 124 93 160 20 36 64
110 98 165 35 55 86 141 115 190 29 50 62 104 74 120 12 17 38 57 57 90 86
145 169 279 182 294 7 9 23 34 35 56 12 22 48 83 81 135 33 52 67 108 76 125
9 16 22 35 28 41 6 7 29 42 51 79 22 37 62 101 89 144 67 104 86 134 141 221
26 41 58 91 70 110 12 19 40 62 60 95 21 33 57 89 80 125 23 36 58 90 77 120
19 30 60 93 90 140 30 47 88 137 128 200 40 63 103 160 139 215 36 55 68 105
71 110 3 6 36 57 74 115 210 318 460 702 481 738 11 17 23 32 27 32 4 0 8 5 8
11 0 7 16 34 35 60 19 27 35 54 35 59 0 6 5 10 10 10 6 0 10 6 10 14 0 8 3 16
8 18 4 2 45 62 92 133 46 72 88 132 92 133 4 2 8 8 8 14 0 6 20 39 45 74 25
34 45 67 45 73 0 6 5 11 10 11 6 0 10 6 10 14 0 8 7 17 16 20 8 3 13 10 10 15
-3 5 1 11 9 15 8 3 15 12 15 21 0 8 5 15 10 15 6 0 10 7 10 15 0 8 5 15 10 15
6 0 10 7 10 15 0 8 5 15 10 15 6 0 10 7 10 15 0 8 5 15 10 15 6 0 10 7 10 15
0 8 5 15 10 15 6 0 10 7 10 15 0 8 5 15 10 15 6 0 10 4 10 9 0 13 271 425 282
429 4 2 8 10 8 18 0 8 5 14 10 14 6 0 10 7 10 15 0 8 5 15 10 15 6 0 10 7 10
15 0 8 5 15 10 15 6 0 10 7 10 15 0 8 5 15 10 15 6 0 10 5 10 10 0 11 304 466
422 631 37 53 68 101 68 108 0 6 5 11 11 11 5 0 8 4 5 9 -3 5 1 12 10 15 8 3
13 10 10 15 -3 5 1 12 10 15 9 4 14 9 11 13 -4 3 0 11 7 17 8 6 82 115 165
241 83 127 160 241 172 254 11 13 29 41 40 62 11 22 23 39 27 39 8 0 33 46 53
98 24 66 7 134 -45 172 -25 18 -137 52 -152 46 -11 -4 -234 9 -314 19 -19 2
-55 6 -80 9 -255 28 -517 101 -720 199 -36 18 -67 30 -69 29 -2 -2 -7 0 -10 5
-8 11 -85 63 -93 63 -4 0 -24 16 -45 35 -21 19 -43 35 -49 35 -14 0 -80 65
-149 145 -66 77 -186 199 -253 255 -90 75 -183 218 -260 395 -60 140 -87 210
-84 223 2 6 -2 12 -8 12 -5 0 -9 3 -9 8 1 4 0 10 -1 15 -1 4 -3 10 -4 15 -1 4
-7 16 -13 27 -6 12 -21 59 -33 105 -20 80 -23 148 -7 206 9 37 47 104 58 104
6 0 8 4 5 8 -3 5 3 16 12 25 9 9 37 37 62 62 25 26 83 72 130 103 83 54 263
145 288 145 6 0 12 4 12 9 0 4 3 7 8 7 4 -1 10 0 15 1 4 1 10 3 15 5 4 1 16 5
27 9 45 17 50 19 58 21 4 2 9 4 12 5 3 1 10 4 15 5 6 1 12 4 15 5 3 1 10 4 15
5 6 1 12 4 15 5 3 1 9 3 14 4 5 0 13 4 17 9 4 4 17 7 29 7 12 0 25 3 29 7 3 4
14 8 24 9 33 4 69 14 113 30 57 20 83 27 159 39 25 4 50 10 55 14 6 4 26 8 45
10 19 2 39 6 45 9 5 3 16 7 25 8 8 1 58 9 110 19 52 9 131 23 175 30 146 24
220 37 245 43 14 3 29 4 33 4 4 -1 36 2 70 7 34 6 82 13 107 16 25 3 56 8 70
10 14 2 57 7 95 11 39 3 72 8 75 9 3 2 48 6 100 10 52 4 97 9 100 10 3 2 46 6
95 10 50 3 101 8 115 10 14 2 61 7 105 10 44 3 103 7 130 10 28 3 86 7 130 10
341 22 543 34 690 40 61 3 135 7 165 10 30 2 107 7 170 10 63 3 144 8 180 10
36 3 112 7 170 10 126 6 296 15 365 20 28 2 113 6 190 10 77 4 147 9 156 10 9
2 87 6 175 10 87 4 166 9 175 10 8 2 98 6 200 10 101 4 186 9 188 10 5 5 1323
-4 1426 -10z"/>
<path d="M13894 16390 c-33 -5 -82 -18 -107 -30 -49 -23 -137 -95 -137 -112 0
-6 -23 -40 -52 -76 -155 -198 -778 -1188 -778 -1237 0 -7 -6 -18 -14 -24 -8
-7 -40 -68 -71 -138 -70 -156 -82 -238 -45 -298 31 -50 88 -75 155 -69 61 6
88 14 190 54 44 17 125 46 180 65 127 42 372 131 635 230 113 43 223 84 245
92 38 14 190 73 435 169 135 54 655 267 714 294 23 10 146 64 275 120 234 102
620 279 761 349 41 21 119 60 173 87 54 27 114 62 134 78 118 97 61 268 -106
321 -25 8 -64 21 -87 29 -22 8 -71 17 -108 20 -37 3 -71 8 -76 11 -25 16 -276
40 -620 60 -160 9 -1631 13 -1696 5z"/>
<path d="M12707 10994 c-1 -1 -155 -4 -342 -8 -187 -3 -353 -8 -370 -11 -16
-2 -91 -6 -165 -9 -277 -12 -577 -42 -850 -87 -102 -17 -190 -35 -196 -40 -6
-5 -13 -7 -16 -4 -8 8 -182 -43 -288 -85 -57 -23 -141 -66 -186 -96 -90 -59
-108 -81 -238 -301 -56 -95 -484 -758 -861 -1333 -56 -85 -120 -187 -143 -227
-23 -39 -48 -78 -56 -85 -30 -30 -125 -187 -140 -231 -41 -120 5 -216 109
-230 35 -4 145 10 159 22 6 5 38 16 71 26 33 9 69 22 80 28 11 6 22 12 25 13
3 0 12 3 20 6 8 4 87 29 175 58 145 47 201 66 415 144 36 14 166 61 290 106
124 45 230 86 235 90 6 5 12 8 15 9 27 1 655 245 677 263 7 6 13 8 13 4 0 -4
11 1 25 10 14 9 25 12 25 8 0 -5 4 -3 8 3 4 7 17 14 27 16 11 2 43 13 70 25
28 12 54 22 59 21 5 0 12 3 15 8 7 11 102 48 114 45 4 -1 7 2 7 7 0 5 16 12
35 15 19 4 35 11 35 16 0 5 16 12 35 16 19 3 35 10 35 14 0 4 16 11 35 14 19
4 35 11 35 16 0 6 9 10 19 10 11 0 23 5 26 10 4 6 11 8 16 5 5 -4 9 -2 9 3 0
9 28 20 70 28 8 2 16 8 18 13 2 6 12 11 22 11 10 0 22 5 25 10 4 6 10 8 15 5
5 -3 15 1 22 9 12 11 51 29 69 31 3 0 21 8 40 17 19 9 59 28 89 41 222 99 947
457 985 486 5 5 46 27 90 51 290 155 823 482 833 511 2 5 10 9 18 9 8 0 14 4
14 8 0 4 12 13 28 20 31 13 162 101 243 164 128 98 144 224 34 281 -40 20 -50
20 -858 21 -450 1 -819 0 -820 0z"/>
</g>
</svg>
